<mxfile host="app.diagrams.net" version="24.7.6">
  <diagram name="Page-1" id="MsLHMgIlve-dHfDy2BMO">
    <mxGraphModel dx="1434" dy="770" grid="0" gridSize="10" guides="1" tooltips="1" connect="1" arrows="1" fold="1" page="1" pageScale="1" pageWidth="850" pageHeight="1100" background="none" math="0" shadow="0">
      <root>
        <mxCell id="0" />
        <mxCell id="1" parent="0" />
        <mxCell id="rRlXahgoijrTMuf5fEYY-5" value="" style="outlineConnect=0;dashed=0;verticalLabelPosition=bottom;verticalAlign=top;align=center;html=1;shape=mxgraph.aws3.iam;fillColor=#759C3E;gradientColor=none;" parent="1" vertex="1">
          <mxGeometry x="376.6" y="166" width="33.19" height="64" as="geometry" />
        </mxCell>
        <mxCell id="DCYSnuWeQx_j8ZV7MNOz-11" value="IAM (Identity Provider)" style="text;html=1;align=center;verticalAlign=middle;resizable=0;points=[];autosize=1;strokeColor=none;fillColor=none;" vertex="1" parent="1">
          <mxGeometry x="331" y="134" width="137" height="26" as="geometry" />
        </mxCell>
        <mxCell id="DCYSnuWeQx_j8ZV7MNOz-28" style="edgeStyle=orthogonalEdgeStyle;rounded=0;orthogonalLoop=1;jettySize=auto;html=1;entryX=0.5;entryY=0;entryDx=0;entryDy=0;" edge="1" parent="1" source="DCYSnuWeQx_j8ZV7MNOz-18" target="DCYSnuWeQx_j8ZV7MNOz-20">
          <mxGeometry relative="1" as="geometry" />
        </mxCell>
        <mxCell id="DCYSnuWeQx_j8ZV7MNOz-18" value="" style="shape=image;html=1;verticalAlign=top;verticalLabelPosition=bottom;labelBackgroundColor=#ffffff;imageAspect=0;aspect=fixed;image=https://cdn4.iconfinder.com/data/icons/ionicons/512/icon-social-github-128.png" vertex="1" parent="1">
          <mxGeometry x="77" y="161" width="50" height="50" as="geometry" />
        </mxCell>
        <mxCell id="DCYSnuWeQx_j8ZV7MNOz-22" style="edgeStyle=orthogonalEdgeStyle;rounded=0;orthogonalLoop=1;jettySize=auto;html=1;" edge="1" parent="1" source="DCYSnuWeQx_j8ZV7MNOz-20">
          <mxGeometry relative="1" as="geometry">
            <mxPoint x="102" y="336" as="targetPoint" />
          </mxGeometry>
        </mxCell>
        <mxCell id="DCYSnuWeQx_j8ZV7MNOz-20" value="GitHub Actions" style="text;html=1;align=center;verticalAlign=middle;whiteSpace=wrap;rounded=0;fillColor=#fff2cc;strokeColor=#d6b656;" vertex="1" parent="1">
          <mxGeometry x="50" y="254" width="104" height="30" as="geometry" />
        </mxCell>
        <mxCell id="DCYSnuWeQx_j8ZV7MNOz-23" value="Uses the `github-action-deployment-role` to deploy the application (resources) on AWS" style="text;html=1;align=center;verticalAlign=middle;whiteSpace=wrap;rounded=0;" vertex="1" parent="1">
          <mxGeometry x="23.75" y="365" width="156.5" height="30" as="geometry" />
        </mxCell>
        <mxCell id="DCYSnuWeQx_j8ZV7MNOz-26" value="GitHub" style="text;html=1;align=center;verticalAlign=middle;whiteSpace=wrap;rounded=0;" vertex="1" parent="1">
          <mxGeometry x="72" y="136" width="60" height="30" as="geometry" />
        </mxCell>
        <mxCell id="rRlXahgoijrTMuf5fEYY-4" value="GitHub OIDC Provider" style="shape=image;html=1;verticalAlign=top;verticalLabelPosition=bottom;labelBackgroundColor=#ffffff;imageAspect=0;aspect=fixed;image=https://cdn4.iconfinder.com/data/icons/ionicons/512/icon-social-github-128.png" parent="1" vertex="1">
          <mxGeometry x="374.19000000000005" y="343" width="38" height="38" as="geometry" />
        </mxCell>
        <mxCell id="DCYSnuWeQx_j8ZV7MNOz-29" style="edgeStyle=orthogonalEdgeStyle;rounded=0;orthogonalLoop=1;jettySize=auto;html=1;" edge="1" parent="1">
          <mxGeometry relative="1" as="geometry">
            <mxPoint x="633" y="362" as="targetPoint" />
            <mxPoint x="450.79999999999995" y="362" as="sourcePoint" />
          </mxGeometry>
        </mxCell>
        <mxCell id="DCYSnuWeQx_j8ZV7MNOz-41" value="Assumes" style="edgeLabel;html=1;align=center;verticalAlign=middle;resizable=0;points=[];" vertex="1" connectable="0" parent="DCYSnuWeQx_j8ZV7MNOz-29">
          <mxGeometry x="-0.0919" y="-1" relative="1" as="geometry">
            <mxPoint as="offset" />
          </mxGeometry>
        </mxCell>
        <mxCell id="DCYSnuWeQx_j8ZV7MNOz-35" value="" style="endArrow=classic;html=1;rounded=0;" edge="1" parent="1">
          <mxGeometry width="50" height="50" relative="1" as="geometry">
            <mxPoint x="394" y="239" as="sourcePoint" />
            <mxPoint x="394" y="332" as="targetPoint" />
          </mxGeometry>
        </mxCell>
        <mxCell id="DCYSnuWeQx_j8ZV7MNOz-36" value="Registers" style="edgeLabel;html=1;align=center;verticalAlign=middle;resizable=0;points=[];" vertex="1" connectable="0" parent="DCYSnuWeQx_j8ZV7MNOz-35">
          <mxGeometry x="-0.1441" relative="1" as="geometry">
            <mxPoint as="offset" />
          </mxGeometry>
        </mxCell>
        <mxCell id="DCYSnuWeQx_j8ZV7MNOz-37" value="" style="sketch=0;outlineConnect=0;fontColor=#232F3E;gradientColor=none;fillColor=#DD344C;strokeColor=none;dashed=0;verticalLabelPosition=bottom;verticalAlign=top;align=center;html=1;fontSize=12;fontStyle=0;aspect=fixed;pointerEvents=1;shape=mxgraph.aws4.permissions;" vertex="1" parent="1">
          <mxGeometry x="690.02" y="194" width="35.77" height="45" as="geometry" />
        </mxCell>
        <mxCell id="DCYSnuWeQx_j8ZV7MNOz-38" value="Admin Access" style="text;html=1;align=center;verticalAlign=middle;whiteSpace=wrap;rounded=0;" vertex="1" parent="1">
          <mxGeometry x="666.4" y="166" width="85" height="30" as="geometry" />
        </mxCell>
        <mxCell id="DCYSnuWeQx_j8ZV7MNOz-39" value="" style="endArrow=classic;html=1;rounded=0;" edge="1" parent="1">
          <mxGeometry width="50" height="50" relative="1" as="geometry">
            <mxPoint x="711.02" y="332" as="sourcePoint" />
            <mxPoint x="711.02" y="254" as="targetPoint" />
          </mxGeometry>
        </mxCell>
        <mxCell id="DCYSnuWeQx_j8ZV7MNOz-40" value="Policy" style="edgeLabel;html=1;align=center;verticalAlign=middle;resizable=0;points=[];" vertex="1" connectable="0" parent="DCYSnuWeQx_j8ZV7MNOz-39">
          <mxGeometry x="0.1222" y="-2" relative="1" as="geometry">
            <mxPoint y="5" as="offset" />
          </mxGeometry>
        </mxCell>
        <mxCell id="DCYSnuWeQx_j8ZV7MNOz-42" value="AWS Cloud" style="points=[[0,0],[0.25,0],[0.5,0],[0.75,0],[1,0],[1,0.25],[1,0.5],[1,0.75],[1,1],[0.75,1],[0.5,1],[0.25,1],[0,1],[0,0.75],[0,0.5],[0,0.25]];outlineConnect=0;gradientColor=none;html=1;whiteSpace=wrap;fontSize=12;fontStyle=0;container=0;pointerEvents=0;collapsible=0;recursiveResize=0;shape=mxgraph.aws4.group;grIcon=mxgraph.aws4.group_aws_cloud_alt;strokeColor=#232F3E;fillColor=none;verticalAlign=top;align=left;spacingLeft=30;fontColor=#232F3E;dashed=0;" vertex="1" parent="1">
          <mxGeometry x="285" y="85" width="532" height="359" as="geometry" />
        </mxCell>
        <mxCell id="DCYSnuWeQx_j8ZV7MNOz-43" value="" style="endArrow=classic;html=1;rounded=0;" edge="1" parent="1">
          <mxGeometry width="50" height="50" relative="1" as="geometry">
            <mxPoint x="174" y="271" as="sourcePoint" />
            <mxPoint x="271" y="271" as="targetPoint" />
          </mxGeometry>
        </mxCell>
        <mxCell id="DCYSnuWeQx_j8ZV7MNOz-44" value="" style="sketch=0;outlineConnect=0;fontColor=#232F3E;gradientColor=none;fillColor=#DD344C;strokeColor=none;dashed=0;verticalLabelPosition=bottom;verticalAlign=top;align=center;html=1;fontSize=12;fontStyle=0;aspect=fixed;pointerEvents=1;shape=mxgraph.aws4.role;" vertex="1" parent="1">
          <mxGeometry x="681.43" y="340" width="54.95" height="31" as="geometry" />
        </mxCell>
        <mxCell id="DCYSnuWeQx_j8ZV7MNOz-45" value="github-action-deployment-role" style="text;html=1;align=center;verticalAlign=middle;whiteSpace=wrap;rounded=0;" vertex="1" parent="1">
          <mxGeometry x="643" y="378" width="141.62" height="30" as="geometry" />
        </mxCell>
      </root>
    </mxGraphModel>
  </diagram>
</mxfile>
